<svg xmlns="http://www.w3.org/2000/svg" xmlns:xlink="http://www.w3.org/1999/xlink" id="visual" viewBox="0 0 900 600" width="900" height="600" version="1.1">
	<rect x="0" y="0" width="900" height="600" fill="#23302d" />
	<path d="M0 454L21.5 459C43 464 86 474 128.8 482.2C171.7 490.3 214.3 496.7 257.2 497C300 497.3 343 491.7 385.8 491.7C428.7 491.7 471.3 497.3 514.2 494.5C557 491.7 600 480.3 642.8 474C685.7 467.7 728.3 466.3 771.2 472.8C814 479.3 857 493.7 878.5 500.8L900 508L900 601L878.5 601C857 601 814 601 771.2 601C728.3 601 685.7 601 642.8 601C600 601 557 601 514.2 601C471.3 601 428.7 601 385.8 601C343 601 300 601 257.2 601C214.3 601 171.7 601 128.8 601C86 601 43 601 21.5 601L0 601Z" fill="#1b2525" />
	<path d="M0 486L21.5 484.5C43 483 86 480 128.8 481.5C171.7 483 214.3 489 257.2 494.7C300 500.3 343 505.7 385.8 507.8C428.7 510 471.3 509 514.2 509.5C557 510 600 512 642.8 511C685.7 510 728.3 506 771.2 501.5C814 497 857 492 878.5 489.5L900 487L900 601L878.5 601C857 601 814 601 771.2 601C728.3 601 685.7 601 642.8 601C600 601 557 601 514.2 601C471.3 601 428.7 601 385.8 601C343 601 300 601 257.2 601C214.3 601 171.7 601 128.8 601C86 601 43 601 21.5 601L0 601Z" fill="#181f1f" />
	<path d="M0 538L21.5 534C43 530 86 522 128.8 517C171.7 512 214.3 510 257.2 513.3C300 516.7 343 525.3 385.8 524.5C428.7 523.7 471.3 513.3 514.2 511.7C557 510 600 517 642.8 517.3C685.7 517.7 728.3 511.3 771.2 512.7C814 514 857 523 878.5 527.5L900 532L900 601L878.5 601C857 601 814 601 771.2 601C728.3 601 685.7 601 642.8 601C600 601 557 601 514.2 601C471.3 601 428.7 601 385.8 601C343 601 300 601 257.2 601C214.3 601 171.7 601 128.8 601C86 601 43 601 21.5 601L0 601Z" fill="#151a19" />
	<path d="M0 547L21.5 547.5C43 548 86 549 128.8 549.7C171.7 550.3 214.3 550.7 257.2 547.3C300 544 343 537 385.8 536C428.7 535 471.3 540 514.2 545.2C557 550.3 600 555.7 642.8 557.7C685.7 559.7 728.3 558.3 771.2 555.2C814 552 857 547 878.5 544.5L900 542L900 601L878.5 601C857 601 814 601 771.2 601C728.3 601 685.7 601 642.8 601C600 601 557 601 514.2 601C471.3 601 428.7 601 385.8 601C343 601 300 601 257.2 601C214.3 601 171.7 601 128.8 601C86 601 43 601 21.5 601L0 601Z" fill="#111513" />
	<path d="M0 579L21.5 575.3C43 571.7 86 564.3 128.8 560.8C171.7 557.3 214.3 557.7 257.2 559.7C300 561.7 343 565.3 385.8 568.2C428.7 571 471.3 573 514.2 573.2C557 573.3 600 571.7 642.8 569C685.7 566.3 728.3 562.7 771.2 562.2C814 561.7 857 564.3 878.5 565.7L900 567L900 601L878.5 601C857 601 814 601 771.2 601C728.3 601 685.7 601 642.8 601C600 601 557 601 514.2 601C471.3 601 428.7 601 385.8 601C343 601 300 601 257.2 601C214.3 601 171.7 601 128.8 601C86 601 43 601 21.5 601L0 601Z" fill="#0b0e0c" />
</svg>
